<?xml version="1.0" encoding="UTF-8"?>
<svg viewBox="0 0 64 64" xmlns="http://www.w3.org/2000/svg">
 <defs>
  <filter id="a">
   <feGaussianBlur stdDeviation="1.20495"/>
  </filter>
  <linearGradient id="b" x1="44.494" x2="37.943" y1="31.098" y2="29.517" gradientUnits="userSpaceOnUse">
   <stop stop-color="#d40000" offset="0"/>
   <stop stop-color="#d40000" stop-opacity="0" offset="1"/>
  </linearGradient>
  <linearGradient id="c" x2="0" y1="23.785" y2="35.676" gradientUnits="userSpaceOnUse">
   <stop stop-color="#f00" offset="0"/>
   <stop stop-color="#f00" stop-opacity="0" offset="1"/>
  </linearGradient>
 </defs>
 <path d="m62.335 35.676s-4.8012-3.6673-8.6951-4.0641c-3.2628-0.33246-7.4883 0.01165-9.9198-1.6626-4.8788-3.3596-9.1191-6.0363-19.227-6.558-13.379-0.69051-22.621 9.8234-21.676 11.546-0.71192-0.16109 8.431-10.883 22.044-9.5137 7.5641 0.76082 9.8308 2.2802 17.635 6.2809 2.8846 1.4787 8.158 0.80178 11.634 1.016 3.7546 0.23139 8.2052 2.9557 8.2052 2.9557z" fill="url(#c)"/>
 <path transform="matrix(-.09846 -.08593 .09846 -.08593 -6.2142 66.806)" d="m86.27 254.11c1.7638 1.6798-1.3941 3.2063-2.7919 2.9315-3.7879-0.74461-4.5112-5.5555-3.0711-8.5153 2.5761-5.2944 9.5818-6.0781 14.239-3.2107 6.8342 4.2081 7.6899 13.662 3.3503 19.962-5.784 8.397-17.762 9.3206-25.686 3.4899-9.9716-7.3374-10.961-21.87-3.6295-31.409 8.8797-11.553 25.984-12.607 37.132-3.7691 13.138 10.416 14.257 30.1 3.9087 42.856-11.948 14.727-34.219 15.909-48.579 4.0482-16.316-13.477-17.563-38.34-4.1878-54.303 15.005-17.908 42.461-19.218 60.026-4.3274 4.6942 3.9796 8.539 8.932 11.257 14.452" fill="#e6e6e6" filter="url(#a)" opacity=".19712" stroke="#c0b6b6" stroke-width="3.1252"/>
 <path transform="matrix(-.08092 -.07062 .08092 -.07062 43.321 61.508)" d="m86.27 254.11c1.7638 1.6798-1.3941 3.2063-2.7919 2.9315-3.7879-0.74461-4.5112-5.5555-3.0711-8.5153 2.5761-5.2944 9.5818-6.0781 14.239-3.2107 6.8342 4.2081 7.6899 13.662 3.3503 19.962-5.784 8.397-17.762 9.3206-25.686 3.4899-9.9716-7.3374-10.961-21.87-3.6295-31.409 8.8797-11.553 25.984-12.607 37.132-3.7691 13.138 10.416 14.257 30.1 3.9087 42.856-11.948 14.727-34.219 15.909-48.579 4.0483-16.316-13.477-17.563-38.34-4.1878-54.303 13.123-15.661 36.32-18.981 53.776-8.7577" fill="#e6e6e6" filter="url(#a)" opacity=".19712" stroke="#c0b6b6" stroke-width="3.1252"/>
 <path d="m13.172 35.496a4.9514 4.7229 0 1 1 -0.95797 -1.3954l-3.5982 3.2443z" fill="#e6e6e6" opacity=".74038" stroke="#322828" stroke-linecap="round" stroke-opacity=".57558" stroke-width="1.5564"/>
 <path d="m51.277 36.612a4.8282 4.3229 12.627 1 1 -0.30722 1.4955l4.8052 0.22488z" fill="#e6e6e6" opacity=".84135" stroke="#2d2d2d" stroke-linecap="round" stroke-opacity=".57558" stroke-width="1.47"/>
 <path d="m62.335 35.676s-4.8012-3.6673-8.6951-4.0641c-3.2628-0.33246-7.4883 0.01165-9.9198-1.6626-4.8788-3.3596-9.1191-6.0363-19.227-6.558-13.379-0.69051-22.621 9.8234-21.676 11.546-0.71192-0.16109 8.431-10.883 22.044-9.5137 7.5641 0.76082 9.8308 2.2802 17.635 6.2809 2.8846 1.4787 8.158 0.80178 11.634 1.016 3.7546 0.23139 8.2052 2.9557 8.2052 2.9557z" fill="url(#b)" stroke="#b11b1b" stroke-width=".11117"/>
</svg>
